<?xml version="1.0" standalone="no"?>
<!DOCTYPE svg PUBLIC "-//W3C//DTD SVG 20010904//EN"
 "http://www.w3.org/TR/2001/REC-SVG-20010904/DTD/svg10.dtd">
<svg version="1.0" xmlns="http://www.w3.org/2000/svg"
 width="500.000000pt" height="500.000000pt" viewBox="0 0 500.000000 500.000000"
 preserveAspectRatio="xMidYMid meet">

<g transform="translate(0.000000,500.000000) scale(0.100000,-0.100000)"
fill="#000000" stroke="none">
<path d="M1744 4629 c-18 -20 -19 -43 -22 -385 l-3 -364 -245 0 c-142 0 -253
-4 -264 -10 -10 -5 -28 -25 -39 -44 -20 -31 -21 -47 -21 -280 l0 -246 -383 0
c-433 0 -427 1 -427 -70 0 -71 -6 -70 427 -70 l383 0 0 -290 0 -290 -375 0
c-431 0 -435 -1 -435 -70 0 -71 -6 -70 427 -70 l383 0 0 -295 0 -295 -383 0
c-330 0 -386 -2 -405 -16 -29 -20 -30 -74 -1 -100 20 -18 42 -19 403 -19 l381
0 5 -267 c5 -251 6 -269 25 -287 17 -18 38 -21 155 -25 74 -2 192 -5 263 -5
l127 -1 0 -364 c0 -243 4 -374 11 -395 19 -54 95 -65 122 -17 9 15 13 122 14
396 l2 375 290 3 291 2 0 -381 c0 -232 4 -388 10 -399 12 -23 62 -35 88 -21
38 20 42 60 42 437 l0 364 290 0 290 0 0 -384 0 -385 26 -20 c33 -26 55 -26
85 -2 l24 19 3 385 3 384 245 7 c251 7 281 12 313 50 9 11 13 82 15 271 l2
256 337 -1 c209 0 353 4 377 10 56 15 77 63 46 106 -14 18 -33 19 -388 24
l-373 5 0 290 0 290 373 5 c355 5 374 6 388 24 20 28 17 70 -7 92 -20 18 -43
19 -384 22 -322 2 -364 5 -369 19 -4 9 -3 139 0 289 l7 274 357 0 c346 0 358
1 384 21 35 28 35 70 0 98 -26 20 -38 21 -385 21 l-357 0 -4 233 c-3 260 -7
275 -75 322 -38 25 -38 25 -270 25 l-233 0 0 349 c0 410 -2 420 -77 421 -63 0
-63 -3 -63 -407 l0 -363 -290 0 -289 0 -3 364 c-3 342 -4 365 -22 385 -26 29
-80 28 -100 -1 -14 -19 -16 -73 -16 -385 l0 -363 -290 0 c-225 0 -290 3 -290
13 -11 722 -11 721 -27 739 -22 25 -75 23 -99 -3z m1541 -1354 l25 -24 0 -741
0 -742 -29 -29 -30 -29 -741 2 -742 3 -24 28 -24 28 0 734 0 733 26 31 26 31
744 0 745 0 24 -25z"/>
<path d="M1883 3153 c-10 -4 -13 -143 -13 -649 l0 -644 645 0 645 0 -2 648 -3
647 -630 2 c-346 1 -636 -1 -642 -4z m447 -277 c0 -29 -4 -34 -30 -39 -57 -12
-70 -37 -70 -135 0 -106 -11 -150 -46 -179 l-27 -21 30 -31 c36 -36 43 -65 43
-181 0 -97 9 -114 68 -126 28 -6 32 -10 32 -40 0 -29 -3 -34 -24 -34 -38 0
-89 21 -119 48 -36 34 -47 78 -47 188 0 102 -10 120 -72 133 -30 6 -33 10 -33
41 0 32 3 35 38 41 21 3 43 11 50 18 7 7 14 60 18 131 6 127 16 154 64 186 25
16 73 31 108 33 13 1 17 -7 17 -33z m360 23 c0 -5 -55 -156 -121 -335 l-122
-324 -38 0 c-22 0 -39 2 -39 5 0 7 212 576 233 628 14 33 20 37 51 37 20 0 36
-5 36 -11z m154 -17 c60 -35 71 -62 76 -192 6 -132 11 -142 78 -155 29 -5 32
-9 32 -40 0 -32 -3 -35 -29 -35 -15 0 -40 -9 -55 -21 -25 -20 -26 -24 -26
-122 -1 -158 -35 -209 -152 -225 l-39 -5 3 34 c2 27 8 34 34 41 58 15 68 38
74 165 5 114 5 115 38 144 l32 29 -32 29 c-33 29 -33 30 -39 145 -6 129 -16
151 -75 162 -29 5 -34 10 -34 33 0 15 3 31 7 35 11 10 73 -2 107 -22z"/>
</g>
</svg>
